<?xml version="1.0" encoding="utf-8"?>
<!-- Generator: Adobe Illustrator 22.0.1, SVG Export Plug-In . SVG Version: 6.00 Build 0)  -->
<svg version="1.1" id="Layer_1" xmlns="http://www.w3.org/2000/svg" xmlns:xlink="http://www.w3.org/1999/xlink" x="0px" y="0px"
	 viewBox="0 0 25 51" style="enable-background:new 0 0 25 51;" xml:space="preserve">
<path d="M23.6,12.5c0,0.7-0.5,1.1-1,1.1c-0.5,0-1-0.3-1-1c0-0.3,0.2-0.9,0.9-1c-0.5-0.5-1.3-0.5-1.6-0.5c-1.1,0-2,0.6-2.3,5.2
	l-0.5,6.2c-0.2,2.8-1.1,10-1.4,11.3c-0.5,2.2-1.7,4.4-4.1,4.4c-1.5,0-2.7-0.9-2.7-2.1c0-0.7,0.5-1.1,1-1.1c0.5,0,1,0.3,1,1
	c0,0.3-0.2,0.9-0.9,1c0.5,0.4,1.3,0.5,1.6,0.5c1.4,0,2.3-1.1,2.6-5.2l0.5-6.2c0.2-3,1.1-10.1,1.4-11.4c0.4-1.9,1.4-4.3,3.8-4.3
	C22.4,10.4,23.6,11.3,23.6,12.5z"/>
<path d="M15.5,12.5c0,0.7-0.5,1.1-1,1.1c-0.5,0-1-0.3-1-1c0-0.3,0.2-0.9,0.9-1c-0.5-0.5-1.3-0.5-1.6-0.5c-1.1,0-2,0.6-2.3,5.2
	L10,22.4c-0.2,2.8-1.1,10-1.4,11.3C8,36,6.8,38.1,4.4,38.1c-1.5,0-2.7-0.9-2.7-2.1c0-0.7,0.5-1.1,1-1.1c0.5,0,1,0.3,1,1
	c0,0.3-0.2,0.9-0.9,1c0.5,0.4,1.3,0.5,1.6,0.5c1.4,0,2.3-1.1,2.6-5.2l0.5-6.2c0.2-3,1.1-10.1,1.4-11.4c0.4-1.9,1.4-4.3,3.8-4.3
	C14.3,10.4,15.5,11.3,15.5,12.5z"/>
</svg>
