<svg id="Layer_1" data-name="Layer 1" xmlns="http://www.w3.org/2000/svg" viewBox="0 0 21.93 27.74"><title>integral</title><path d="M23.63,12.46a1,1,0,0,1-1.05,1.07,1,1,0,0,1-1-1,1,1,0,0,1,.93-1,2.59,2.59,0,0,0-1.58-.52c-1.12,0-2,.62-2.32,5.22l-.47,6.21c-.2,2.77-1.1,10-1.43,11.34-.55,2.25-1.74,4.42-4.12,4.42-1.49,0-2.74-.87-2.74-2.07a1,1,0,0,1,1-1.08,1,1,0,0,1,1,1.05,1,1,0,0,1-.92,1,2.63,2.63,0,0,0,1.59.52c1.43,0,2.33-1.12,2.65-5.22l.47-6.22c.23-3,1.13-10.06,1.43-11.43.42-1.9,1.4-4.32,3.77-4.32C22.38,10.39,23.63,11.26,23.63,12.46Z" transform="translate(-1.69 -10.39)"/><path d="M15.5,12.46a1,1,0,0,1-1.05,1.07,1,1,0,0,1-1-1,1,1,0,0,1,.92-1,2.56,2.56,0,0,0-1.57-.52c-1.13,0-2,.62-2.32,5.22L10,22.37c-.2,2.77-1.1,10-1.42,11.34C8,36,6.81,38.13,4.44,38.13c-1.5,0-2.75-.87-2.75-2.07A1,1,0,0,1,2.74,35a1,1,0,0,1,1,1.05,1,1,0,0,1-.92,1,2.64,2.64,0,0,0,1.6.52c1.42,0,2.32-1.12,2.65-5.22l.47-6.22c.22-3,1.12-10.06,1.42-11.43.43-1.9,1.4-4.32,3.77-4.32C14.25,10.39,15.5,11.26,15.5,12.46Z" transform="translate(-1.69 -10.39)"/></svg>