<svg width="44" height="32" viewBox="0 0 44 32" fill="none" xmlns="http://www.w3.org/2000/svg">
<g id="menu_24px">
<path id="icon/navigation/menu_24px" fill-rule="evenodd" clip-rule="evenodd" d="M7.33333 10.6667C6.325 10.6667 5.5 10.0667 5.5 9.33333C5.5 8.6 6.325 8 7.33333 8H36.6667C37.675 8 38.5 8.6 38.5 9.33333C38.5 10.0667 37.675 10.6667 36.6667 10.6667H7.33333ZM7.33333 19.0769H36.6667C37.675 19.0769 38.5 18.4769 38.5 17.7436C38.5 17.0103 37.675 16.4103 36.6667 16.4103H7.33333C6.325 16.4103 5.5 17.0103 5.5 17.7436C5.5 18.4769 6.325 19.0769 7.33333 19.0769ZM7.33333 27.4872H36.6667C37.675 27.4872 38.5 26.8872 38.5 26.1538C38.5 25.4205 37.675 24.8205 36.6667 24.8205H7.33333C6.325 24.8205 5.5 25.4205 5.5 26.1538C5.5 26.8872 6.325 27.4872 7.33333 27.4872Z" fill="white"/>
</g>
</svg>
